<svg width="181" height="150" viewBox="0 0 181 150" fill="none" xmlns="http://www.w3.org/2000/svg">
<path d="M164.468 46.2985H146.459C148.909 49.4461 150.383 53.3907 150.383 57.6739V96.3223C150.383 106.542 142.016 114.889 131.816 114.889H86.4341C88.8446 121.065 94.8411 125.468 101.854 125.468H164.468C173.552 125.468 181.003 118.037 181.003 108.933V62.8336C180.983 53.7293 173.552 46.2985 164.468 46.2985Z" fill="#FFB89A"/>
<path d="M143.53 85.8633V26.8746C143.53 12.0926 131.438 0 116.656 0H27.4852C12.7032 0 0.610596 12.0926 0.610596 26.8746V85.8633C0.610596 99.9082 11.5278 111.503 25.2739 112.638C25.2739 112.638 21.2895 143.597 26.25 143.597C31.2106 143.597 63.7829 112.738 63.7829 112.738H116.636C131.438 112.738 143.53 100.645 143.53 85.8633ZM59.0415 100.785L55.5751 104.052C55.5153 104.112 48.702 110.566 40.9922 117.42C39.2989 118.914 37.7649 120.268 36.3504 121.504C36.729 117.34 37.1274 114.212 37.1274 114.172L38.7211 101.761L26.25 100.725C18.5801 100.088 12.5637 93.5531 12.5637 85.8633V26.8746C12.5637 22.9102 14.1176 19.1848 16.9665 16.3559C19.7954 13.527 23.5407 11.9531 27.4852 11.9531H116.656C120.62 11.9531 124.345 13.507 127.174 16.3559C130.003 19.1848 131.577 22.9301 131.577 26.8746V85.8633C131.577 89.8277 130.023 93.5531 127.174 96.382C124.345 99.2109 120.6 100.785 116.656 100.785H59.0415Z" fill="#45484C"/>
<path d="M153.411 37.1543C150.184 36.4968 147.016 38.5687 146.359 41.7961C145.702 45.0234 147.773 48.191 151.001 48.8484C158.77 50.4422 164.408 57.355 164.408 65.284V100.546C164.408 108.833 158.213 115.985 150.005 117.161L143.49 118.097L145.044 124.492C145.443 126.105 145.821 127.839 146.2 129.532C142.693 126.265 138.769 122.52 135.203 119.033L133.47 117.32H100.061C95.6977 117.32 92.7692 117.041 90.6575 115.607C87.9282 113.754 84.2028 114.451 82.3501 117.18C80.4973 119.91 81.1946 123.635 83.9239 125.488C89.0438 128.974 94.9407 129.273 100.061 129.273H128.589C130.581 131.205 134.027 134.512 137.554 137.8C140.781 140.808 143.45 143.198 145.482 144.952C149.467 148.338 151.32 149.553 153.77 149.553C155.702 149.553 157.495 148.677 158.711 147.143C160.723 144.573 160.743 141.346 158.81 131.464C158.531 130.03 158.232 128.636 157.954 127.361C168.791 123.157 176.361 112.559 176.361 100.546V65.284C176.381 51.7371 166.719 39.9035 153.411 37.1543Z" fill="#45484C"/>
<path d="M74.5805 89.9273C67.4286 89.9273 60.436 86.5207 54.8977 80.3449C49.9969 74.8664 47.0684 68.073 47.0684 62.1363V56.2195L52.9852 56.1598C53.0649 56.1598 60.1969 56.0801 71.9907 56.0801C75.2977 56.0801 77.9673 58.7496 77.9673 62.0566C77.9673 65.3637 75.2977 68.0332 71.9907 68.0332C67.5481 68.0332 63.7829 68.0531 60.7946 68.0531C61.5516 69.4676 62.5477 70.9418 63.8028 72.3562C66.9903 75.9223 70.9149 77.9543 74.5805 77.9543C78.2462 77.9543 82.1708 75.9023 85.3583 72.3562C86.6532 70.902 87.6692 69.3879 88.4262 67.9336C85.6969 67.3758 83.6251 64.9453 83.645 62.0566C83.6649 58.7695 86.3344 56.1 89.6216 56.1H89.6415C95.0403 56.1199 96.1161 56.1398 96.3352 56.1598L102.093 56.3789V62.1363C102.093 68.073 99.1641 74.8664 94.2634 80.3449C88.7051 86.5207 81.7325 89.9273 74.5805 89.9273Z" fill="#33CC99"/>
</svg>
