<svg width="125" height="183" viewBox="0 0 125 183" fill="none" xmlns="http://www.w3.org/2000/svg">
<path d="M81.2779 11.9674C88.7575 19.9456 93.2452 30.9156 93.2452 42.3843C92.7466 66.8175 72.8011 86.763 48.3679 86.2644C43.3815 86.2644 38.3951 85.2671 33.9074 83.7712C41.8856 92.7467 53.3542 98.2317 66.3188 98.2317C90.752 98.7303 111.196 78.7849 111.196 54.3516C111.196 34.9047 98.7302 18.4497 81.2779 11.9674Z" fill="#4DE0F9"/>
<path d="M60.3351 95.2398H59.8365C47.3706 95.2398 35.4033 90.2534 26.4278 80.7793C17.4523 71.3052 12.9646 59.8365 12.9646 46.8719C13.4632 20.9428 34.406 0 60.3351 0H60.8338C86.7629 0.498638 108.204 21.9401 107.706 47.8692C107.706 74.297 86.2643 95.2398 60.3351 95.2398ZM60.3351 6.48229C37.8964 6.48229 18.9482 24.9319 18.9482 47.3706C18.9482 58.3406 22.9373 68.812 30.9155 76.7902C38.8937 84.7684 48.8665 89.2561 60.3351 89.2561H60.8338C83.2725 89.2561 102.221 70.8065 102.221 48.3678C102.221 25.4305 83.7711 6.48229 60.3351 6.48229C60.8338 6.48229 60.8338 6.48229 60.3351 6.48229Z" fill="#0D5FC3"/>
<path d="M124.161 168.54C124.659 144.605 109.7 123.662 88.7575 114.687C99.7275 125.158 106.708 140.117 106.21 156.572V171.033H20.9428V183H124.161V168.54Z" fill="#4DE0F9"/>
<path d="M115.185 177.016V162.556C115.185 148.095 109.7 134.133 99.7275 123.662C89.2561 113.191 75.7929 107.207 61.3324 107.207H60.8338C46.3733 107.207 32.9101 112.692 22.4387 122.665C11.9673 133.136 5.98365 146.599 5.98365 161.06V176.518H0V160.561C0 144.106 6.48229 129.147 18.4496 117.678C29.9183 106.21 45.376 100.226 61.3324 100.226C77.7875 100.226 92.7466 106.708 104.215 118.676C115.684 130.643 121.668 145.602 121.668 161.559V176.019H115.185V177.016Z" fill="#0D5FC3"/>
<path d="M41.3869 156.073H20.9428V162.057H41.3869V156.073Z" fill="#0D5FC3"/>
<path d="M63.327 125.657H57.3433V177.016H63.327V125.657Z" fill="#0D5FC3"/>
</svg>
