<svg width="418" height="418" viewBox="0 0 418 418" fill="none" xmlns="http://www.w3.org/2000/svg">
<g filter="url(#filter0_i_32_4)">
<path d="M397.301 224C397.301 318.993 287.67 396 192.677 396C97.6839 396 20 303.993 20 209C20 114.007 107.934 123 239.523 37C319.089 -15 397.301 129.007 397.301 224Z" fill="#F17D2B"/>
<path fill-rule="evenodd" clip-rule="evenodd" d="M192.677 396C297.059 396 360 313.378 360 208.996C360 104.614 313.382 19.9961 209 19.9961C104.618 19.9961 20 104.618 20 209C20 313.382 88.295 396 192.677 396ZM209 417.996C324.427 417.996 418 324.424 418 208.996C418 93.5686 324.427 -0.00390625 209 -0.00390625C93.5725 -0.00390625 0 93.5686 0 208.996C0 324.424 93.5725 417.996 209 417.996Z" fill="#EAAF2D"/>
</g>
<path d="M153.396 179.023C156.578 179.023 159.618 179.544 162.516 180.585C165.413 181.608 167.999 183.246 170.271 185.5C172.544 187.735 174.334 190.68 175.641 194.335C176.947 197.991 177.601 202.451 177.601 207.716C177.62 212.564 177.052 216.911 175.896 220.756C174.741 224.581 173.084 227.839 170.925 230.528C168.785 233.218 166.209 235.273 163.197 236.693C160.186 238.095 156.824 238.795 153.112 238.795C149.021 238.795 145.413 238.009 142.288 236.438C139.182 234.847 136.692 232.706 134.817 230.017C132.961 227.328 131.853 224.316 131.493 220.983H145.328C145.764 222.915 146.682 224.373 148.084 225.358C149.485 226.324 151.161 226.807 153.112 226.807C156.673 226.807 159.334 225.263 161.095 222.176C162.857 219.089 163.737 214.894 163.737 209.591H163.396C162.582 211.333 161.427 212.83 159.93 214.08C158.453 215.33 156.739 216.286 154.788 216.949C152.838 217.612 150.783 217.943 148.624 217.943C145.139 217.943 142.061 217.148 139.391 215.557C136.739 213.966 134.656 211.778 133.141 208.994C131.644 206.21 130.887 203.028 130.868 199.449C130.849 195.434 131.786 191.892 133.68 188.824C135.574 185.737 138.216 183.331 141.607 181.608C144.997 179.866 148.927 179.004 153.396 179.023ZM153.482 189.818C151.739 189.818 150.186 190.225 148.822 191.04C147.478 191.854 146.417 192.953 145.641 194.335C144.864 195.718 144.485 197.271 144.504 198.994C144.523 200.718 144.911 202.271 145.669 203.653C146.446 205.036 147.497 206.134 148.822 206.949C150.167 207.763 151.701 208.17 153.425 208.17C154.713 208.17 155.906 207.934 157.004 207.46C158.103 206.987 159.059 206.333 159.874 205.5C160.688 204.648 161.322 203.663 161.777 202.545C162.25 201.428 162.478 200.235 162.459 198.966C162.44 197.28 162.042 195.746 161.266 194.364C160.489 192.981 159.419 191.883 158.055 191.068C156.711 190.235 155.186 189.818 153.482 189.818ZM212.224 179.818V238H198.19V192.943H197.849L184.838 200.898V188.739L199.185 179.818H212.224ZM257.672 227.091V224.023C257.672 221.636 258.183 219.43 259.206 217.403C260.248 215.377 261.753 213.748 263.723 212.517C265.693 211.286 268.098 210.67 270.939 210.67C273.837 210.67 276.27 211.286 278.24 212.517C280.229 213.729 281.725 215.348 282.729 217.375C283.751 219.383 284.263 221.598 284.263 224.023V227.091C284.263 229.477 283.751 231.684 282.729 233.71C281.706 235.737 280.2 237.366 278.212 238.597C276.223 239.828 273.799 240.443 270.939 240.443C268.06 240.443 265.636 239.828 263.666 238.597C261.696 237.366 260.2 235.737 259.178 233.71C258.174 231.684 257.672 229.477 257.672 227.091ZM266.734 224.023V227.091C266.734 228.303 267.028 229.468 267.615 230.585C268.221 231.703 269.329 232.261 270.939 232.261C272.587 232.261 273.695 231.722 274.263 230.642C274.831 229.544 275.115 228.36 275.115 227.091V224.023C275.115 222.754 274.84 221.561 274.291 220.443C273.761 219.307 272.643 218.739 270.939 218.739C269.348 218.739 268.25 219.307 267.643 220.443C267.037 221.561 266.734 222.754 266.734 224.023ZM227.501 193.795V190.727C227.501 188.303 228.022 186.087 229.064 184.08C230.125 182.053 231.64 180.434 233.609 179.222C235.579 177.991 237.965 177.375 240.768 177.375C243.666 177.375 246.1 177.991 248.07 179.222C250.058 180.434 251.564 182.053 252.587 184.08C253.609 186.087 254.121 188.303 254.121 190.727V193.795C254.121 196.22 253.6 198.436 252.558 200.443C251.536 202.451 250.03 204.051 248.041 205.244C246.053 206.437 243.628 207.034 240.768 207.034C237.909 207.034 235.484 206.428 233.496 205.216C231.526 204.004 230.03 202.394 229.007 200.386C228.003 198.379 227.501 196.182 227.501 193.795ZM236.649 190.727V193.795C236.649 195.064 236.943 196.248 237.53 197.347C238.136 198.426 239.215 198.966 240.768 198.966C242.435 198.966 243.543 198.426 244.092 197.347C244.661 196.248 244.945 195.064 244.945 193.795V190.727C244.945 189.458 244.679 188.265 244.149 187.148C243.619 186.011 242.492 185.443 240.768 185.443C239.178 185.443 238.089 186.021 237.501 187.176C236.933 188.331 236.649 189.515 236.649 190.727ZM231.791 238L271.791 179.818H279.547L239.547 238H231.791Z" fill="white"/>
<defs>
<filter id="filter0_i_32_4" x="0" y="-0.00390625" width="422" height="422" filterUnits="userSpaceOnUse" color-interpolation-filters="sRGB">
<feFlood flood-opacity="0" result="BackgroundImageFix"/>
<feBlend mode="normal" in="SourceGraphic" in2="BackgroundImageFix" result="shape"/>
<feColorMatrix in="SourceAlpha" type="matrix" values="0 0 0 0 0 0 0 0 0 0 0 0 0 0 0 0 0 0 127 0" result="hardAlpha"/>
<feOffset dx="4" dy="4"/>
<feGaussianBlur stdDeviation="5"/>
<feComposite in2="hardAlpha" operator="arithmetic" k2="-1" k3="1"/>
<feColorMatrix type="matrix" values="0 0 0 0 0 0 0 0 0 0 0 0 0 0 0 0 0 0 0.25 0"/>
<feBlend mode="normal" in2="shape" result="effect1_innerShadow_32_4"/>
</filter>
</defs>
</svg>
