<svg width="418" height="418" viewBox="0 0 418 418" fill="none" xmlns="http://www.w3.org/2000/svg">
<g filter="url(#filter0_i_32_2)">
<path d="M417.602 222C417.602 316.993 287.67 396 192.677 396C97.6839 396 22.971 340.993 22.971 246C22.971 151.007 106 246 237.59 160C320 106.141 401.593 20 417.602 222Z" fill="#00A0A7"/>
<path fill-rule="evenodd" clip-rule="evenodd" d="M192.677 396C297.059 396 374 313.382 374 209C374 104.618 313.382 20 209 20C104.618 20 56 95.353 56 199.735C56 304.117 88.2951 396 192.677 396ZM209 418C324.428 418 418 324.428 418 209C418 93.5725 324.428 0 209 0C93.5725 0 0 93.5725 0 209C0 324.428 93.5725 418 209 418Z" fill="#33CC99"/>
</g>
<path d="M154.103 241.795C149.576 241.795 145.533 241.076 141.972 239.636C138.431 238.178 135.647 236.208 133.62 233.727C131.612 231.227 130.609 228.405 130.609 225.261C130.609 222.856 131.186 220.65 132.342 218.642C133.497 216.634 135.059 214.968 137.029 213.642C139.018 212.297 141.234 211.436 143.677 211.057V210.602C140.476 210.015 137.853 208.528 135.808 206.142C133.781 203.756 132.768 200.962 132.768 197.761C132.768 194.731 133.686 192.032 135.523 189.665C137.379 187.297 139.908 185.432 143.109 184.068C146.328 182.705 149.993 182.023 154.103 182.023C158.213 182.023 161.868 182.705 165.069 184.068C168.289 185.432 170.817 187.297 172.654 189.665C174.51 192.032 175.438 194.731 175.438 197.761C175.438 200.981 174.406 203.784 172.342 206.17C170.296 208.538 167.692 210.015 164.529 210.602V211.057C166.953 211.436 169.15 212.297 171.12 213.642C173.109 214.968 174.681 216.634 175.836 218.642C177.01 220.65 177.597 222.856 177.597 225.261C177.597 228.405 176.584 231.227 174.558 233.727C172.531 236.208 169.747 238.178 166.205 239.636C162.683 241.076 158.648 241.795 154.103 241.795ZM154.103 231.824C155.826 231.824 157.342 231.502 158.648 230.858C159.955 230.195 160.978 229.277 161.717 228.102C162.474 226.928 162.853 225.602 162.853 224.125C162.853 222.61 162.474 221.265 161.717 220.091C160.959 218.917 159.917 217.998 158.592 217.335C157.285 216.653 155.789 216.312 154.103 216.312C152.436 216.312 150.94 216.653 149.614 217.335C148.289 217.998 147.247 218.917 146.489 220.091C145.732 221.265 145.353 222.61 145.353 224.125C145.353 225.602 145.722 226.928 146.461 228.102C147.219 229.258 148.251 230.167 149.558 230.83C150.883 231.492 152.398 231.824 154.103 231.824ZM154.103 206.398C155.58 206.398 156.887 206.095 158.023 205.489C159.179 204.883 160.078 204.04 160.722 202.96C161.385 201.881 161.717 200.659 161.717 199.295C161.717 197.932 161.385 196.729 160.722 195.688C160.078 194.646 159.188 193.831 158.052 193.244C156.915 192.638 155.599 192.335 154.103 192.335C152.626 192.335 151.309 192.638 150.154 193.244C148.999 193.831 148.099 194.646 147.455 195.688C146.811 196.729 146.489 197.932 146.489 199.295C146.489 200.659 146.811 201.881 147.455 202.96C148.118 204.021 149.027 204.864 150.183 205.489C151.338 206.095 152.645 206.398 154.103 206.398ZM212.342 182.818V241H198.308V195.943H197.967L184.955 203.898V191.739L199.302 182.818H212.342ZM257.789 230.091V227.023C257.789 224.636 258.3 222.43 259.323 220.403C260.365 218.377 261.871 216.748 263.84 215.517C265.81 214.286 268.215 213.67 271.056 213.67C273.954 213.67 276.388 214.286 278.357 215.517C280.346 216.729 281.842 218.348 282.846 220.375C283.869 222.383 284.38 224.598 284.38 227.023V230.091C284.38 232.477 283.869 234.684 282.846 236.71C281.823 238.737 280.317 240.366 278.329 241.597C276.34 242.828 273.916 243.443 271.056 243.443C268.177 243.443 265.753 242.828 263.783 241.597C261.814 240.366 260.317 238.737 259.295 236.71C258.291 234.684 257.789 232.477 257.789 230.091ZM266.852 227.023V230.091C266.852 231.303 267.145 232.468 267.732 233.585C268.338 234.703 269.446 235.261 271.056 235.261C272.704 235.261 273.812 234.722 274.38 233.642C274.948 232.544 275.232 231.36 275.232 230.091V227.023C275.232 225.754 274.958 224.561 274.408 223.443C273.878 222.307 272.761 221.739 271.056 221.739C269.465 221.739 268.367 222.307 267.761 223.443C267.155 224.561 266.852 225.754 266.852 227.023ZM227.619 196.795V193.727C227.619 191.303 228.139 189.087 229.181 187.08C230.242 185.053 231.757 183.434 233.727 182.222C235.696 180.991 238.083 180.375 240.886 180.375C243.783 180.375 246.217 180.991 248.187 182.222C250.175 183.434 251.681 185.053 252.704 187.08C253.727 189.087 254.238 191.303 254.238 193.727V196.795C254.238 199.22 253.717 201.436 252.675 203.443C251.653 205.451 250.147 207.051 248.158 208.244C246.17 209.437 243.746 210.034 240.886 210.034C238.026 210.034 235.602 209.428 233.613 208.216C231.643 207.004 230.147 205.394 229.124 203.386C228.121 201.379 227.619 199.182 227.619 196.795ZM236.766 193.727V196.795C236.766 198.064 237.06 199.248 237.647 200.347C238.253 201.426 239.333 201.966 240.886 201.966C242.552 201.966 243.66 201.426 244.21 200.347C244.778 199.248 245.062 198.064 245.062 196.795V193.727C245.062 192.458 244.797 191.265 244.266 190.148C243.736 189.011 242.609 188.443 240.886 188.443C239.295 188.443 238.206 189.021 237.619 190.176C237.05 191.331 236.766 192.515 236.766 193.727ZM231.908 241L271.908 182.818H279.664L239.664 241H231.908Z" fill="white"/>
<defs>
<filter id="filter0_i_32_2" x="0" y="0" width="422" height="422" filterUnits="userSpaceOnUse" color-interpolation-filters="sRGB">
<feFlood flood-opacity="0" result="BackgroundImageFix"/>
<feBlend mode="normal" in="SourceGraphic" in2="BackgroundImageFix" result="shape"/>
<feColorMatrix in="SourceAlpha" type="matrix" values="0 0 0 0 0 0 0 0 0 0 0 0 0 0 0 0 0 0 127 0" result="hardAlpha"/>
<feOffset dx="4" dy="4"/>
<feGaussianBlur stdDeviation="5"/>
<feComposite in2="hardAlpha" operator="arithmetic" k2="-1" k3="1"/>
<feColorMatrix type="matrix" values="0 0 0 0 0 0 0 0 0 0 0 0 0 0 0 0 0 0 0.25 0"/>
<feBlend mode="normal" in2="shape" result="effect1_innerShadow_32_2"/>
</filter>
</defs>
</svg>
