<svg width="164" height="183" viewBox="0 0 164 183" fill="none" xmlns="http://www.w3.org/2000/svg">
<path d="M81.7242 182.875C62.7836 182.875 49.0679 142.055 49.0679 91.4375C49.0679 40.8203 62.7836 0 81.7242 0C100.665 0 114.38 40.8203 114.38 91.4375C114.38 142.055 100.665 182.875 81.7242 182.875ZM81.7242 176.344C95.1132 176.344 107.849 138.462 107.849 91.4375C107.849 44.4125 95.1132 6.53125 81.7242 6.53125C68.3351 6.53125 55.5992 44.4125 55.5992 91.4375C55.5992 138.462 68.3351 176.344 81.7242 176.344Z" fill="#494949"/>
<path d="M2.69601 137.156C-7.10087 120.828 21.6366 88.4985 65.396 63.0266C109.155 37.5547 151.282 29.3907 160.752 45.7188C170.223 62.0469 141.812 94.3766 98.0523 119.848C54.2929 145.32 12.1663 153.484 2.69601 137.156ZM8.24757 133.891C15.1054 145.647 54.2929 137.483 94.7866 113.97C135.28 90.4579 162.059 60.7407 155.201 48.9844C148.343 37.2282 109.155 45.3922 68.6616 68.9047C28.1679 92.4172 1.38976 122.134 8.24757 133.891Z" fill="#494949"/>
<path d="M160.752 137.156C151.282 153.484 108.829 144.994 65.3961 119.849C21.9633 94.7032 -7.10079 62.047 2.69609 45.7188C12.493 29.3907 54.6195 37.8813 98.0523 63.0266C141.485 88.172 170.549 120.828 160.752 137.156ZM155.201 133.891C162.059 122.134 135.28 92.4173 94.7867 68.9048C54.293 45.3923 14.7789 37.2282 8.24765 48.9845C1.7164 60.7407 28.168 90.4579 68.6617 113.97C109.155 137.483 148.67 145.647 155.201 133.891Z" fill="#494949"/>
<path d="M81.7242 107.766C72.5804 107.766 65.3961 100.581 65.3961 91.4375C65.3961 82.2938 72.5804 75.1094 81.7242 75.1094C90.8679 75.1094 98.0523 82.2938 98.0523 91.4375C98.0523 100.581 90.8679 107.766 81.7242 107.766ZM32.7398 50.6172C27.1882 50.6172 22.9429 46.3719 22.9429 40.8203C22.9429 35.2687 27.1882 31.0234 32.7398 31.0234C38.2914 31.0234 42.5367 35.2687 42.5367 40.8203C42.5367 46.3719 38.2914 50.6172 32.7398 50.6172ZM62.1304 166.547C56.5789 166.547 52.3336 162.302 52.3336 156.75C52.3336 151.198 56.5789 146.953 62.1304 146.953C67.682 146.953 71.9273 151.198 71.9273 156.75C71.9273 162.302 67.682 166.547 62.1304 166.547ZM153.568 78.375C148.016 78.375 143.771 74.1297 143.771 68.5781C143.771 63.0266 148.016 58.7812 153.568 58.7812C159.119 58.7812 163.365 63.0266 163.365 68.5781C163.365 74.1297 159.119 78.375 153.568 78.375Z" fill="#2F4BFF"/>
</svg>
