<svg width="418" height="418" viewBox="0 0 418 418" fill="none" xmlns="http://www.w3.org/2000/svg">
<g filter="url(#filter0_i_32_3)">
<path d="M397.301 224C397.301 318.993 287.67 396 192.677 396C97.6839 396 20.4765 318.993 20.4765 224C20.4765 129.007 108.41 138 240 52C319.566 0 397.301 129.007 397.301 224Z" fill="#0D5FC3"/>
<path fill-rule="evenodd" clip-rule="evenodd" d="M192.677 396C297.059 396 360 313.382 360 209C360 104.618 313.382 20 209 20C104.618 20 20 104.618 20 209C20 313.382 88.2951 396 192.677 396ZM209 418C324.428 418 418 324.428 418 209C418 93.5725 324.428 0 209 0C93.5725 0 0 93.5725 0 209C0 324.428 93.5725 418 209 418Z" fill="#3A86FF"/>
</g>
<path d="M146.248 179.023C149.43 179.023 152.469 179.544 155.367 180.585C158.265 181.608 160.85 183.246 163.123 185.5C165.396 187.735 167.185 190.68 168.492 194.335C169.799 197.991 170.452 202.451 170.452 207.716C170.471 212.564 169.903 216.911 168.748 220.756C167.593 224.581 165.935 227.839 163.776 230.528C161.636 233.218 159.06 235.273 156.049 236.693C153.038 238.095 149.676 238.795 145.964 238.795C141.873 238.795 138.265 238.009 135.14 236.438C132.034 234.847 129.543 232.706 127.668 230.017C125.812 227.328 124.704 224.316 124.344 220.983H138.18C138.615 222.915 139.534 224.373 140.935 225.358C142.337 226.324 144.013 226.807 145.964 226.807C149.524 226.807 152.185 225.263 153.947 222.176C155.708 219.089 156.589 214.894 156.589 209.591H156.248C155.433 211.333 154.278 212.83 152.782 214.08C151.305 215.33 149.591 216.286 147.64 216.949C145.689 217.612 143.634 217.943 141.475 217.943C137.99 217.943 134.913 217.148 132.242 215.557C129.591 213.966 127.507 211.778 125.992 208.994C124.496 206.21 123.738 203.028 123.719 199.449C123.701 195.434 124.638 191.892 126.532 188.824C128.426 185.737 131.068 183.331 134.458 181.608C137.848 179.866 141.778 179.004 146.248 179.023ZM146.333 189.818C144.591 189.818 143.038 190.225 141.674 191.04C140.329 191.854 139.269 192.953 138.492 194.335C137.716 195.718 137.337 197.271 137.356 198.994C137.375 200.718 137.763 202.271 138.521 203.653C139.297 205.036 140.348 206.134 141.674 206.949C143.019 207.763 144.553 208.17 146.276 208.17C147.564 208.17 148.757 207.934 149.856 207.46C150.954 206.987 151.911 206.333 152.725 205.5C153.54 204.648 154.174 203.663 154.629 202.545C155.102 201.428 155.329 200.235 155.31 198.966C155.291 197.28 154.894 195.746 154.117 194.364C153.341 192.981 152.271 191.883 150.907 191.068C149.562 190.235 148.038 189.818 146.333 189.818ZM200.9 238.795C196.373 238.795 192.33 238.076 188.769 236.636C185.228 235.178 182.443 233.208 180.417 230.727C178.409 228.227 177.406 225.405 177.406 222.261C177.406 219.856 177.983 217.65 179.138 215.642C180.294 213.634 181.856 211.968 183.826 210.642C185.815 209.297 188.031 208.436 190.474 208.057V207.602C187.273 207.015 184.65 205.528 182.604 203.142C180.578 200.756 179.565 197.962 179.565 194.761C179.565 191.731 180.483 189.032 182.32 186.665C184.176 184.297 186.705 182.432 189.906 181.068C193.125 179.705 196.79 179.023 200.9 179.023C205.01 179.023 208.665 179.705 211.866 181.068C215.085 182.432 217.614 184.297 219.451 186.665C221.307 189.032 222.235 191.731 222.235 194.761C222.235 197.981 221.203 200.784 219.138 203.17C217.093 205.538 214.489 207.015 211.326 207.602V208.057C213.75 208.436 215.947 209.297 217.917 210.642C219.906 211.968 221.478 213.634 222.633 215.642C223.807 217.65 224.394 219.856 224.394 222.261C224.394 225.405 223.381 228.227 221.354 230.727C219.328 233.208 216.544 235.178 213.002 236.636C209.479 238.076 205.445 238.795 200.9 238.795ZM200.9 228.824C202.623 228.824 204.138 228.502 205.445 227.858C206.752 227.195 207.775 226.277 208.513 225.102C209.271 223.928 209.65 222.602 209.65 221.125C209.65 219.61 209.271 218.265 208.513 217.091C207.756 215.917 206.714 214.998 205.388 214.335C204.082 213.653 202.585 213.312 200.9 213.312C199.233 213.312 197.737 213.653 196.411 214.335C195.085 214.998 194.044 215.917 193.286 217.091C192.529 218.265 192.15 219.61 192.15 221.125C192.15 222.602 192.519 223.928 193.258 225.102C194.015 226.258 195.048 227.167 196.354 227.83C197.68 228.492 199.195 228.824 200.9 228.824ZM200.9 203.398C202.377 203.398 203.684 203.095 204.82 202.489C205.976 201.883 206.875 201.04 207.519 199.96C208.182 198.881 208.513 197.659 208.513 196.295C208.513 194.932 208.182 193.729 207.519 192.688C206.875 191.646 205.985 190.831 204.849 190.244C203.712 189.638 202.396 189.335 200.9 189.335C199.423 189.335 198.106 189.638 196.951 190.244C195.796 190.831 194.896 191.646 194.252 192.688C193.608 193.729 193.286 194.932 193.286 196.295C193.286 197.659 193.608 198.881 194.252 199.96C194.915 201.021 195.824 201.864 196.979 202.489C198.135 203.095 199.442 203.398 200.9 203.398ZM264.82 227.091V224.023C264.82 221.636 265.332 219.43 266.354 217.403C267.396 215.377 268.902 213.748 270.871 212.517C272.841 211.286 275.246 210.67 278.087 210.67C280.985 210.67 283.419 211.286 285.388 212.517C287.377 213.729 288.873 215.348 289.877 217.375C290.9 219.383 291.411 221.598 291.411 224.023V227.091C291.411 229.477 290.9 231.684 289.877 233.71C288.854 235.737 287.349 237.366 285.36 238.597C283.371 239.828 280.947 240.443 278.087 240.443C275.209 240.443 272.784 239.828 270.815 238.597C268.845 237.366 267.349 235.737 266.326 233.71C265.322 231.684 264.82 229.477 264.82 227.091ZM273.883 224.023V227.091C273.883 228.303 274.176 229.468 274.763 230.585C275.37 231.703 276.478 232.261 278.087 232.261C279.735 232.261 280.843 231.722 281.411 230.642C281.979 229.544 282.263 228.36 282.263 227.091V224.023C282.263 222.754 281.989 221.561 281.44 220.443C280.909 219.307 279.792 218.739 278.087 218.739C276.496 218.739 275.398 219.307 274.792 220.443C274.186 221.561 273.883 222.754 273.883 224.023ZM234.65 193.795V190.727C234.65 188.303 235.171 186.087 236.212 184.08C237.273 182.053 238.788 180.434 240.758 179.222C242.728 177.991 245.114 177.375 247.917 177.375C250.815 177.375 253.248 177.991 255.218 179.222C257.207 180.434 258.712 182.053 259.735 184.08C260.758 186.087 261.269 188.303 261.269 190.727V193.795C261.269 196.22 260.748 198.436 259.707 200.443C258.684 202.451 257.178 204.051 255.19 205.244C253.201 206.437 250.777 207.034 247.917 207.034C245.057 207.034 242.633 206.428 240.644 205.216C238.674 204.004 237.178 202.394 236.156 200.386C235.152 198.379 234.65 196.182 234.65 193.795ZM243.798 190.727V193.795C243.798 195.064 244.091 196.248 244.678 197.347C245.284 198.426 246.364 198.966 247.917 198.966C249.584 198.966 250.692 198.426 251.241 197.347C251.809 196.248 252.093 195.064 252.093 193.795V190.727C252.093 189.458 251.828 188.265 251.298 187.148C250.767 186.011 249.64 185.443 247.917 185.443C246.326 185.443 245.237 186.021 244.65 187.176C244.082 188.331 243.798 189.515 243.798 190.727ZM238.94 238L278.94 179.818H286.695L246.695 238H238.94Z" fill="white"/>
<defs>
<filter id="filter0_i_32_3" x="0" y="0" width="422" height="422" filterUnits="userSpaceOnUse" color-interpolation-filters="sRGB">
<feFlood flood-opacity="0" result="BackgroundImageFix"/>
<feBlend mode="normal" in="SourceGraphic" in2="BackgroundImageFix" result="shape"/>
<feColorMatrix in="SourceAlpha" type="matrix" values="0 0 0 0 0 0 0 0 0 0 0 0 0 0 0 0 0 0 127 0" result="hardAlpha"/>
<feOffset dx="4" dy="4"/>
<feGaussianBlur stdDeviation="5"/>
<feComposite in2="hardAlpha" operator="arithmetic" k2="-1" k3="1"/>
<feColorMatrix type="matrix" values="0 0 0 0 0 0 0 0 0 0 0 0 0 0 0 0 0 0 0.25 0"/>
<feBlend mode="normal" in2="shape" result="effect1_innerShadow_32_3"/>
</filter>
</defs>
</svg>
